<svg width="2600.962" height="2600.962" xmlns="http://www.w3.org/2000/svg"><path d="M-1306.99-589.282h3779.54v3779.54h-3779.54V-589.283" fill="none"/><path d="M987.581 494.178c79.653 0 144.227 64.568 144.227 144.207 0 79.659-64.574 144.227-144.227 144.227-79.64 0-144.213-64.568-144.213-144.227 0-79.64 64.572-144.207 144.213-144.207zm651.208 384.886l-228.505 130.37-.039-.04c-12.722 7.223-28.262 9.493-43.43 5.109l-196.02-39.83c-8.84 98.84-6.787 167.812 10.2 243.243 15.867 70.473 33.455 114.033 70.761 160.713 69.174-110.653 148.938-200.718 220.69-281.728 69.207-78.112 130.663-147.515 166.343-217.837zm-528.34-64.94l268.872 65.429 291.253-148.376c-2.818-82.34 4.032-198.618 13.016-351.124 6.263-106.395 13.563-230.404 19.278-370.755l40.182 1.585c-5.813 142.896-13.074 265.966-19.279 371.538-8.729 147.985-15.423 261.64-13.152 341.63 15.6 3.015 29.867 12.586 38.322 27.5 15.345 27.049 5.872 61.418-21.177 76.78l-31.257 17.83c-31.08 93.478-106.668 178.832-193.96 277.378-67.68 76.41-142.645 161.05-208.337 263.277l232.666-49.214c27.498-8.933 56.641 1.614 72.514 24.04l268.882 351.148c21.588 28.268 16.147 68.68-12.115 90.254-28.262 21.587-68.678 16.173-90.247-12.093l-242.48-316.642c-19.395 7.295-223.515 79.68-223.58 79.8l178.037 162.587c9.022 7.547 15.462 17.028 19.2 27.335l176.051 451.227c12.957 33.148-3.425 70.52-36.56 83.468-33.136 12.947-70.5-3.427-83.456-36.561l-170.61-437.28c-77.557-62.12-148.156-111.468-209.69-163.322-34.12 109.76-56.626 243.814-71.507 389.054-18.893 184.454-25.426 386.4-27.787 579.643l-40.187-.466c2.374-194.574 8.948-397.83 27.947-583.27 15.88-154.987 40.48-297.948 78.588-413.84-89.96-82.428-157.32-177.521-194.322-341.83-13.092-58.183-20.467-120.58-22.12-187.164l-54.599 82.712-40.534 317.548c-3.172 30.946-30.828 53.467-61.773 50.293-30.95-3.16-53.47-30.813-50.305-61.774l36.078-342.667a56.086 56.086 0 0113.027-32.685l162.654-221.655c41.385-56.387 116.493-74.51 182.467-61.34" fill="#fff"/></svg>