<svg xmlns="http://www.w3.org/2000/svg" viewBox="0 0 300 300"><g fill="none" stroke="#fcd59c" stroke-width="2"><path d="M159.51 46.28c-19.14-5.69-41.14-1.89-55.62 12.37C93.4 69 88.07 95.85 86.35 110.23c-1.57 13.13-.43 24.07 4.82 35.56q.31.68-.28 1.14-13.63 10.58-12.25 27.05c1.05 12.48-.96 25.18.2 37.84.77 8.32-.76 16.38.71 24.42 5.77 31.58 44.56 32.93 59.16 7.2a.82.82 0 0 1 .77-.4c12.67.99 21.76-1.36 35-5.08 26.02-7.29 45.99-24.72 47.17-53.13q1.06-25.45-16.21-45.5a.81.8 37.3 0 1-.12-.85q2.64-5.63 2.91-8.24c.61-5.7-.2-13.99.48-20.97q1.31-13.49 2.25-27.02c1.2-17.21.14-33.18-17.24-41.06q-17.34-7.87-33.39 4.93-.37.29-.82.16" vector-effect="non-scaling-stroke"/><path d="M131.61 88.38c4.59-12.37 17.08-10.75 23.67-1.71 4.62 6.34 8.9 18 11.24 25.99 1.38 4.71 2.04 10.38 2.97 15.52 1.67 9.2 16.56 4.57 16.25-1.33-1.02-19.82 3.52-39.24 2.61-59.2-.52-11.57-19.01-8.32-14.64 6.09.91 3.01-2.56 7.27-5.68 3.94-11.96-12.77-32.11-15.57-46.63-4.68-7.69 5.76-13.31 37.71-13.43 47.09-.27 19.65 12.94 31.92 31.79 33.54q12.2 1.05 21.22 2.85c15.19 3.03 24.82 15.31 21.79 31.02-1.61 8.42-5.45 12.25-13.58 15.19-9.94 3.6-23.27 8.58-32.61 1.47-11.7-8.91-16.41-22.62-17.18-37a1.66 1.63-66 0 0-.34-.91c-5.14-6.63-19.59-2.98-18.1 6.09 1.41 8.65.46 18.46-.04 29.41-.25 5.63.92 11.79.56 17.67-.34 5.7-2 21.46 8.69 19.56 5.08-.9 10.17-5.34 9.53-10.96q-.36-3.08-.36-3.21c-.12-2.63-3.18-16.52 5.21-10.68q12.34 8.58 27.61 6.09c17.45-2.83 42.69-10.38 46.3-30.51q3.46-19.22-9.5-34.69c-15.77-18.82-38.61-9.93-57.91-19.76a1.72 1.7-1.9 0 1-.68-.63c-8.9-14.41-4.38-31.08 1.24-46.25" vector-effect="non-scaling-stroke"/></g><path fill="#fff" d="M155.5 19.4c29.97-15.12 66.9-1.14 77.75 30.7q2.38 6.97 2.92 17.54c.82 15.98-1.32 31.86-2.67 47.54-.53 6.11.67 12.32-.37 18.87a1.35 1.34-57.3 0 0 .2.94q18.33 29.27 12.09 63.19c-8.39 45.64-51.97 65.15-93.7 70.26q-.47.06-.82.4c-14.77 14.51-35.85 21.23-55.99 15.9-29.02-7.68-41.37-31.99-40.98-60.34.18-13.12-.45-26.1.36-39.22q.21-3.39-.31-7.81-2.3-19.6 8.6-36.31.28-.42.21-.93c-1.53-11.45-2.86-20.49-1.17-33.64q3.21-24.9 12.67-47.18c13.33-31.4 48.53-43.86 80.25-39.75q.5.07.96-.16Zm4.01 26.88c-19.14-5.69-41.14-1.89-55.62 12.37C93.4 69 88.07 95.85 86.35 110.23c-1.57 13.13-.43 24.07 4.82 35.56q.31.68-.28 1.14-13.63 10.58-12.25 27.05c1.05 12.48-.96 25.18.2 37.84.77 8.32-.76 16.38.71 24.42 5.77 31.58 44.56 32.93 59.16 7.2a.82.82 0 0 1 .77-.4c12.67.99 21.76-1.36 35-5.08 26.02-7.29 45.99-24.72 47.17-53.13q1.06-25.45-16.21-45.5a.81.8 37.3 0 1-.12-.85q2.64-5.63 2.91-8.24c.61-5.7-.2-13.99.48-20.97q1.31-13.49 2.25-27.02c1.2-17.21.14-33.18-17.24-41.06q-17.34-7.87-33.39 4.93-.37.29-.82.16Z"/><path fill="#f9aa39" d="M160.33 46.12q16.05-12.8 33.39-4.93c17.38 7.88 18.44 23.85 17.24 41.06q-.94 13.53-2.25 27.02c-.68 6.98.13 15.27-.48 20.97q-.27 2.61-2.91 8.24a.81.8 37.3 0 0 .12.85q17.27 20.05 16.21 45.5c-1.18 28.41-21.15 45.84-47.17 53.13-13.24 3.72-22.33 6.07-35 5.08a.82.82 0 0 0-.77.4c-14.6 25.73-53.39 24.38-59.16-7.2-1.47-8.04.06-16.1-.71-24.42-1.16-12.66.85-25.36-.2-37.84q-1.38-16.47 12.25-27.05.59-.46.28-1.14c-5.25-11.49-6.39-22.43-4.82-35.56C88.07 95.85 93.4 69 103.89 58.65c14.48-14.26 36.48-18.06 55.62-12.37q.45.13.82-.16Zm-28.72 42.26c4.59-12.37 17.08-10.75 23.67-1.71 4.62 6.34 8.9 18 11.24 25.99 1.38 4.71 2.04 10.38 2.97 15.52 1.67 9.2 16.56 4.57 16.25-1.33-1.02-19.82 3.52-39.24 2.61-59.2-.52-11.57-19.01-8.32-14.64 6.09.91 3.01-2.56 7.27-5.68 3.94-11.96-12.77-32.11-15.57-46.63-4.68-7.69 5.76-13.31 37.71-13.43 47.09-.27 19.65 12.94 31.92 31.79 33.54q12.2 1.05 21.22 2.85c15.19 3.03 24.82 15.31 21.79 31.02-1.61 8.42-5.45 12.25-13.58 15.19-9.94 3.6-23.27 8.58-32.61 1.47-11.7-8.91-16.41-22.62-17.18-37a1.66 1.63-66 0 0-.34-.91c-5.14-6.63-19.59-2.98-18.1 6.09 1.41 8.65.46 18.46-.04 29.41-.25 5.63.92 11.79.56 17.67-.34 5.7-2 21.46 8.69 19.56 5.08-.9 10.17-5.34 9.53-10.96q-.36-3.08-.36-3.21c-.12-2.63-3.18-16.52 5.21-10.68q12.34 8.58 27.61 6.09c17.45-2.83 42.69-10.38 46.3-30.51q3.46-19.22-9.5-34.69c-15.77-18.82-38.61-9.93-57.91-19.76a1.72 1.7-1.9 0 1-.68-.63c-8.9-14.41-4.38-31.08 1.24-46.25Z"/><path fill="#fff" d="M155.28 86.67c-6.59-9.04-19.08-10.66-23.67 1.71-5.62 15.17-10.14 31.84-1.24 46.25a1.72 1.7-1.9 0 0 .68.63c19.3 9.83 42.14.94 57.91 19.76q12.96 15.47 9.5 34.69c-3.61 20.13-28.85 27.68-46.3 30.51q-15.27 2.49-27.61-6.09c-8.39-5.84-5.33 8.05-5.21 10.68q0 .13.36 3.21c.64 5.62-4.45 10.06-9.53 10.96-10.69 1.9-9.03-13.86-8.69-19.56.36-5.88-.81-12.04-.56-17.67.5-10.95 1.45-20.76.04-29.41-1.49-9.07 12.96-12.72 18.1-6.09a1.66 1.63-66 0 1 .34.91c.77 14.38 5.48 28.09 17.18 37 9.34 7.11 22.67 2.13 32.61-1.47 8.13-2.94 11.97-6.77 13.58-15.19 3.03-15.71-6.6-27.99-21.79-31.02q-9.02-1.8-21.22-2.85c-18.85-1.62-32.06-13.89-31.79-33.54.12-9.38 5.74-41.33 13.43-47.09 14.52-10.89 34.67-8.09 46.63 4.68 3.12 3.33 6.59-.93 5.68-3.94-4.37-14.41 14.12-17.66 14.64-6.09.91 19.96-3.63 39.38-2.61 59.2.31 5.9-14.58 10.53-16.25 1.33-.93-5.14-1.59-10.81-2.97-15.52-2.34-7.99-6.62-19.65-11.24-25.99Z"/></svg>